<mxfile host="app.diagrams.net" modified="2024-05-29T21:31:05.075Z" agent="Mozilla/5.0 (Windows NT 10.0; Win64; x64) AppleWebKit/537.36 (KHTML, like Gecko) Chrome/125.0.0.0 Safari/537.36" etag="zRPC7fs6xtaeHROq2X2Y" version="24.4.9" type="device">
  <diagram name="‫עמוד-1‬" id="6k-UHdwpC1jXMg5EcXLQ">
    <mxGraphModel dx="2113" dy="1169" grid="0" gridSize="10" guides="1" tooltips="1" connect="1" arrows="1" fold="1" page="0" pageScale="1" pageWidth="827" pageHeight="1169" background="none" math="0" shadow="0">
      <root>
        <mxCell id="0" />
        <mxCell id="1" parent="0" />
        <mxCell id="BXOo2Kb1O86AmZgzZTfz-145" style="edgeStyle=none;curved=1;rounded=0;orthogonalLoop=1;jettySize=auto;html=1;exitX=0.25;exitY=1;exitDx=0;exitDy=0;entryX=0.5;entryY=0;entryDx=0;entryDy=0;fontSize=12;startSize=8;endSize=8;" edge="1" parent="1" source="BXOo2Kb1O86AmZgzZTfz-129" target="BXOo2Kb1O86AmZgzZTfz-130">
          <mxGeometry relative="1" as="geometry" />
        </mxCell>
        <mxCell id="BXOo2Kb1O86AmZgzZTfz-146" style="edgeStyle=none;curved=1;rounded=0;orthogonalLoop=1;jettySize=auto;html=1;exitX=0.5;exitY=1;exitDx=0;exitDy=0;entryX=0.5;entryY=0;entryDx=0;entryDy=0;fontSize=12;startSize=8;endSize=8;" edge="1" parent="1" source="BXOo2Kb1O86AmZgzZTfz-129" target="BXOo2Kb1O86AmZgzZTfz-134">
          <mxGeometry relative="1" as="geometry" />
        </mxCell>
        <mxCell id="BXOo2Kb1O86AmZgzZTfz-147" style="edgeStyle=none;curved=1;rounded=0;orthogonalLoop=1;jettySize=auto;html=1;exitX=0.75;exitY=1;exitDx=0;exitDy=0;entryX=0.5;entryY=0;entryDx=0;entryDy=0;fontSize=12;startSize=8;endSize=8;" edge="1" parent="1" source="BXOo2Kb1O86AmZgzZTfz-129" target="BXOo2Kb1O86AmZgzZTfz-136">
          <mxGeometry relative="1" as="geometry" />
        </mxCell>
        <mxCell id="BXOo2Kb1O86AmZgzZTfz-129" value="מסך פתיחה" style="rounded=0;whiteSpace=wrap;html=1;fillColor=#fff2cc;strokeColor=#d6b656;" vertex="1" parent="1">
          <mxGeometry x="-220" y="-261" width="467" height="43" as="geometry" />
        </mxCell>
        <mxCell id="BXOo2Kb1O86AmZgzZTfz-130" value="Quit" style="rounded=0;whiteSpace=wrap;html=1;fillColor=#f8cecc;strokeColor=#b85450;" vertex="1" parent="1">
          <mxGeometry x="-220" y="-188" width="95" height="60" as="geometry" />
        </mxCell>
        <mxCell id="BXOo2Kb1O86AmZgzZTfz-144" style="edgeStyle=none;curved=1;rounded=0;orthogonalLoop=1;jettySize=auto;html=1;exitX=0.5;exitY=1;exitDx=0;exitDy=0;entryX=0.5;entryY=0;entryDx=0;entryDy=0;fontSize=12;startSize=8;endSize=8;" edge="1" parent="1" source="BXOo2Kb1O86AmZgzZTfz-134" target="BXOo2Kb1O86AmZgzZTfz-141">
          <mxGeometry relative="1" as="geometry" />
        </mxCell>
        <mxCell id="BXOo2Kb1O86AmZgzZTfz-134" value="How To Play?" style="rounded=0;whiteSpace=wrap;html=1;fillColor=#d5e8d4;strokeColor=#82b366;" vertex="1" parent="1">
          <mxGeometry x="-97" y="-188" width="95" height="60" as="geometry" />
        </mxCell>
        <mxCell id="BXOo2Kb1O86AmZgzZTfz-153" style="edgeStyle=none;curved=1;rounded=0;orthogonalLoop=1;jettySize=auto;html=1;exitX=0.5;exitY=1;exitDx=0;exitDy=0;entryX=0.5;entryY=0;entryDx=0;entryDy=0;fontSize=12;startSize=8;endSize=8;" edge="1" parent="1" source="BXOo2Kb1O86AmZgzZTfz-135" target="BXOo2Kb1O86AmZgzZTfz-150">
          <mxGeometry relative="1" as="geometry" />
        </mxCell>
        <mxCell id="BXOo2Kb1O86AmZgzZTfz-135" value="Multiplayer Game" style="rounded=0;whiteSpace=wrap;html=1;fillColor=#d5e8d4;strokeColor=#82b366;" vertex="1" parent="1">
          <mxGeometry x="28" y="-188" width="95" height="60" as="geometry" />
        </mxCell>
        <mxCell id="BXOo2Kb1O86AmZgzZTfz-154" style="edgeStyle=none;curved=1;rounded=0;orthogonalLoop=1;jettySize=auto;html=1;exitX=0.5;exitY=1;exitDx=0;exitDy=0;entryX=0.5;entryY=0;entryDx=0;entryDy=0;fontSize=12;startSize=8;endSize=8;" edge="1" parent="1" source="BXOo2Kb1O86AmZgzZTfz-136" target="BXOo2Kb1O86AmZgzZTfz-152">
          <mxGeometry relative="1" as="geometry" />
        </mxCell>
        <mxCell id="BXOo2Kb1O86AmZgzZTfz-136" value="Single Player Game" style="rounded=0;whiteSpace=wrap;html=1;fillColor=#d5e8d4;strokeColor=#82b366;" vertex="1" parent="1">
          <mxGeometry x="152" y="-188" width="95" height="60" as="geometry" />
        </mxCell>
        <mxCell id="BXOo2Kb1O86AmZgzZTfz-137" style="edgeStyle=none;curved=1;rounded=0;orthogonalLoop=1;jettySize=auto;html=1;exitX=0.75;exitY=1;exitDx=0;exitDy=0;fontSize=12;startSize=8;endSize=8;" edge="1" parent="1" source="BXOo2Kb1O86AmZgzZTfz-136" target="BXOo2Kb1O86AmZgzZTfz-136">
          <mxGeometry relative="1" as="geometry" />
        </mxCell>
        <mxCell id="BXOo2Kb1O86AmZgzZTfz-159" value="" style="edgeStyle=none;curved=1;rounded=0;orthogonalLoop=1;jettySize=auto;html=1;fontSize=12;startSize=8;endSize=8;" edge="1" parent="1" source="BXOo2Kb1O86AmZgzZTfz-141" target="BXOo2Kb1O86AmZgzZTfz-142">
          <mxGeometry relative="1" as="geometry" />
        </mxCell>
        <mxCell id="BXOo2Kb1O86AmZgzZTfz-141" value="מסך הוראות" style="rounded=0;whiteSpace=wrap;html=1;fillColor=#fff2cc;strokeColor=#d6b656;" vertex="1" parent="1">
          <mxGeometry x="-97" y="-109" width="95" height="60" as="geometry" />
        </mxCell>
        <mxCell id="BXOo2Kb1O86AmZgzZTfz-142" value="back" style="rounded=0;whiteSpace=wrap;html=1;fillColor=#d5e8d4;strokeColor=#82b366;" vertex="1" parent="1">
          <mxGeometry x="-220" y="-109" width="95" height="60" as="geometry" />
        </mxCell>
        <mxCell id="BXOo2Kb1O86AmZgzZTfz-148" value="" style="endArrow=classic;html=1;rounded=0;fontSize=12;startSize=8;endSize=8;curved=1;entryX=0.5;entryY=0;entryDx=0;entryDy=0;" edge="1" parent="1" target="BXOo2Kb1O86AmZgzZTfz-135">
          <mxGeometry width="50" height="50" relative="1" as="geometry">
            <mxPoint x="12" y="-217" as="sourcePoint" />
            <mxPoint x="62" y="-267" as="targetPoint" />
          </mxGeometry>
        </mxCell>
        <mxCell id="BXOo2Kb1O86AmZgzZTfz-163" style="edgeStyle=none;curved=1;rounded=0;orthogonalLoop=1;jettySize=auto;html=1;exitX=0.5;exitY=1;exitDx=0;exitDy=0;entryX=0.5;entryY=0;entryDx=0;entryDy=0;fontSize=12;startSize=8;endSize=8;" edge="1" parent="1" source="BXOo2Kb1O86AmZgzZTfz-150" target="BXOo2Kb1O86AmZgzZTfz-161">
          <mxGeometry relative="1" as="geometry" />
        </mxCell>
        <mxCell id="BXOo2Kb1O86AmZgzZTfz-164" style="edgeStyle=none;curved=1;rounded=0;orthogonalLoop=1;jettySize=auto;html=1;exitX=0.5;exitY=1;exitDx=0;exitDy=0;entryX=0.5;entryY=0;entryDx=0;entryDy=0;fontSize=12;startSize=8;endSize=8;" edge="1" parent="1" source="BXOo2Kb1O86AmZgzZTfz-150" target="BXOo2Kb1O86AmZgzZTfz-162">
          <mxGeometry relative="1" as="geometry" />
        </mxCell>
        <mxCell id="BXOo2Kb1O86AmZgzZTfz-150" value="מסך בחירה&lt;br&gt;יצירת שרת&lt;br&gt;או הצטרפות לשרת" style="rounded=0;whiteSpace=wrap;html=1;fillColor=#fff2cc;strokeColor=#d6b656;" vertex="1" parent="1">
          <mxGeometry x="28" y="-111" width="95" height="60" as="geometry" />
        </mxCell>
        <mxCell id="BXOo2Kb1O86AmZgzZTfz-156" style="edgeStyle=none;curved=1;rounded=0;orthogonalLoop=1;jettySize=auto;html=1;exitX=0.5;exitY=1;exitDx=0;exitDy=0;entryX=0.5;entryY=0;entryDx=0;entryDy=0;fontSize=12;startSize=8;endSize=8;" edge="1" parent="1" source="BXOo2Kb1O86AmZgzZTfz-152" target="BXOo2Kb1O86AmZgzZTfz-155">
          <mxGeometry relative="1" as="geometry" />
        </mxCell>
        <mxCell id="BXOo2Kb1O86AmZgzZTfz-152" value="מסך הרצת המשחק" style="rounded=0;whiteSpace=wrap;html=1;fillColor=#fff2cc;strokeColor=#d6b656;" vertex="1" parent="1">
          <mxGeometry x="152" y="-111" width="95" height="60" as="geometry" />
        </mxCell>
        <mxCell id="BXOo2Kb1O86AmZgzZTfz-158" style="edgeStyle=none;curved=1;rounded=0;orthogonalLoop=1;jettySize=auto;html=1;exitX=0.5;exitY=1;exitDx=0;exitDy=0;entryX=0.5;entryY=0;entryDx=0;entryDy=0;fontSize=12;startSize=8;endSize=8;" edge="1" parent="1" source="BXOo2Kb1O86AmZgzZTfz-155" target="BXOo2Kb1O86AmZgzZTfz-157">
          <mxGeometry relative="1" as="geometry" />
        </mxCell>
        <mxCell id="BXOo2Kb1O86AmZgzZTfz-155" value="מסך ניצחון" style="rounded=0;whiteSpace=wrap;html=1;fillColor=#fff2cc;strokeColor=#d6b656;" vertex="1" parent="1">
          <mxGeometry x="152" y="-34" width="95" height="60" as="geometry" />
        </mxCell>
        <mxCell id="BXOo2Kb1O86AmZgzZTfz-157" value="back" style="rounded=0;whiteSpace=wrap;html=1;fillColor=#d5e8d4;strokeColor=#82b366;" vertex="1" parent="1">
          <mxGeometry x="152" y="43" width="95" height="60" as="geometry" />
        </mxCell>
        <mxCell id="BXOo2Kb1O86AmZgzZTfz-175" style="edgeStyle=none;curved=1;rounded=0;orthogonalLoop=1;jettySize=auto;html=1;exitX=0.5;exitY=1;exitDx=0;exitDy=0;entryX=0.5;entryY=0;entryDx=0;entryDy=0;fontSize=12;startSize=8;endSize=8;" edge="1" parent="1" source="BXOo2Kb1O86AmZgzZTfz-161" target="BXOo2Kb1O86AmZgzZTfz-166">
          <mxGeometry relative="1" as="geometry" />
        </mxCell>
        <mxCell id="BXOo2Kb1O86AmZgzZTfz-161" value="Join" style="rounded=0;whiteSpace=wrap;html=1;fillColor=#d5e8d4;strokeColor=#82b366;" vertex="1" parent="1">
          <mxGeometry x="-220" y="5" width="163" height="60" as="geometry" />
        </mxCell>
        <mxCell id="BXOo2Kb1O86AmZgzZTfz-176" style="edgeStyle=none;curved=1;rounded=0;orthogonalLoop=1;jettySize=auto;html=1;exitX=0.5;exitY=1;exitDx=0;exitDy=0;entryX=0.5;entryY=0;entryDx=0;entryDy=0;fontSize=12;startSize=8;endSize=8;" edge="1" parent="1" source="BXOo2Kb1O86AmZgzZTfz-162" target="BXOo2Kb1O86AmZgzZTfz-167">
          <mxGeometry relative="1" as="geometry" />
        </mxCell>
        <mxCell id="BXOo2Kb1O86AmZgzZTfz-162" value="create room" style="rounded=0;whiteSpace=wrap;html=1;fillColor=#d5e8d4;strokeColor=#82b366;" vertex="1" parent="1">
          <mxGeometry x="-34" y="5" width="163" height="60" as="geometry" />
        </mxCell>
        <mxCell id="BXOo2Kb1O86AmZgzZTfz-165" value="" style="curved=1;endArrow=classic;html=1;rounded=0;fontSize=12;startSize=8;endSize=8;entryX=0.5;entryY=1;entryDx=0;entryDy=0;" edge="1" parent="1" target="BXOo2Kb1O86AmZgzZTfz-142">
          <mxGeometry width="50" height="50" relative="1" as="geometry">
            <mxPoint x="30" y="-51" as="sourcePoint" />
            <mxPoint x="83" y="-101" as="targetPoint" />
            <Array as="points">
              <mxPoint x="-172" y="-2" />
              <mxPoint x="-173" y="-44" />
            </Array>
          </mxGeometry>
        </mxCell>
        <mxCell id="BXOo2Kb1O86AmZgzZTfz-166" value="מסך המתנה&amp;nbsp;&lt;div&gt;עד שהמשחק יתחיל&lt;/div&gt;" style="rounded=0;whiteSpace=wrap;html=1;fillColor=#fff2cc;strokeColor=#d6b656;" vertex="1" parent="1">
          <mxGeometry x="-220" y="83" width="163" height="60" as="geometry" />
        </mxCell>
        <mxCell id="BXOo2Kb1O86AmZgzZTfz-167" value="מסך בעל השרת" style="rounded=0;whiteSpace=wrap;html=1;fillColor=#fff2cc;strokeColor=#d6b656;" vertex="1" parent="1">
          <mxGeometry x="-34" y="83" width="163" height="60" as="geometry" />
        </mxCell>
        <mxCell id="BXOo2Kb1O86AmZgzZTfz-169" value="" style="edgeStyle=segmentEdgeStyle;endArrow=classic;html=1;curved=0;rounded=0;endSize=8;startSize=8;fontSize=12;" edge="1" parent="1">
          <mxGeometry width="50" height="50" relative="1" as="geometry">
            <mxPoint x="-220" y="115" as="sourcePoint" />
            <mxPoint x="-220" y="-53" as="targetPoint" />
            <Array as="points">
              <mxPoint x="-237" y="115" />
              <mxPoint x="-237" y="-53" />
            </Array>
          </mxGeometry>
        </mxCell>
        <mxCell id="BXOo2Kb1O86AmZgzZTfz-170" value="" style="edgeStyle=segmentEdgeStyle;endArrow=classic;html=1;curved=0;rounded=0;endSize=8;startSize=8;fontSize=12;entryX=0.5;entryY=1;entryDx=0;entryDy=0;exitX=1;exitY=0.75;exitDx=0;exitDy=0;" edge="1" parent="1" source="BXOo2Kb1O86AmZgzZTfz-167" target="BXOo2Kb1O86AmZgzZTfz-157">
          <mxGeometry width="50" height="50" relative="1" as="geometry">
            <mxPoint x="132" y="144" as="sourcePoint" />
            <mxPoint x="182" y="94" as="targetPoint" />
            <Array as="points">
              <mxPoint x="129" y="144" />
              <mxPoint x="200" y="144" />
            </Array>
          </mxGeometry>
        </mxCell>
        <mxCell id="BXOo2Kb1O86AmZgzZTfz-173" value="" style="edgeStyle=segmentEdgeStyle;endArrow=classic;html=1;curved=0;rounded=0;endSize=8;startSize=8;fontSize=12;entryX=1;entryY=0.25;entryDx=0;entryDy=0;" edge="1" parent="1" target="BXOo2Kb1O86AmZgzZTfz-129">
          <mxGeometry width="50" height="50" relative="1" as="geometry">
            <mxPoint x="247" y="72" as="sourcePoint" />
            <mxPoint x="297" y="-250" as="targetPoint" />
            <Array as="points">
              <mxPoint x="265" y="72" />
              <mxPoint x="265" y="-250" />
            </Array>
          </mxGeometry>
        </mxCell>
        <mxCell id="BXOo2Kb1O86AmZgzZTfz-174" value="Start" style="rounded=0;whiteSpace=wrap;html=1;fillColor=#d5e8d4;strokeColor=#82b366;" vertex="1" parent="1">
          <mxGeometry x="-178" y="164" width="307" height="30" as="geometry" />
        </mxCell>
        <mxCell id="BXOo2Kb1O86AmZgzZTfz-178" style="edgeStyle=none;curved=1;rounded=0;orthogonalLoop=1;jettySize=auto;html=1;exitX=0.5;exitY=1;exitDx=0;exitDy=0;entryX=0.669;entryY=0.07;entryDx=0;entryDy=0;entryPerimeter=0;fontSize=12;startSize=8;endSize=8;" edge="1" parent="1" source="BXOo2Kb1O86AmZgzZTfz-167" target="BXOo2Kb1O86AmZgzZTfz-174">
          <mxGeometry relative="1" as="geometry" />
        </mxCell>
        <mxCell id="BXOo2Kb1O86AmZgzZTfz-179" value="מסך הרצת המשחק(עם עוד שחקנים)" style="rounded=0;whiteSpace=wrap;html=1;fillColor=#fff2cc;strokeColor=#d6b656;" vertex="1" parent="1">
          <mxGeometry x="-220" y="222" width="423" height="60" as="geometry" />
        </mxCell>
        <mxCell id="BXOo2Kb1O86AmZgzZTfz-180" style="edgeStyle=none;curved=1;rounded=0;orthogonalLoop=1;jettySize=auto;html=1;exitX=0.25;exitY=1;exitDx=0;exitDy=0;entryX=0.094;entryY=0.031;entryDx=0;entryDy=0;entryPerimeter=0;fontSize=12;startSize=8;endSize=8;" edge="1" parent="1" source="BXOo2Kb1O86AmZgzZTfz-166" target="BXOo2Kb1O86AmZgzZTfz-179">
          <mxGeometry relative="1" as="geometry" />
        </mxCell>
        <mxCell id="BXOo2Kb1O86AmZgzZTfz-182" style="edgeStyle=none;curved=1;rounded=0;orthogonalLoop=1;jettySize=auto;html=1;exitX=0.5;exitY=1;exitDx=0;exitDy=0;entryX=0.462;entryY=0.017;entryDx=0;entryDy=0;entryPerimeter=0;fontSize=12;startSize=8;endSize=8;" edge="1" parent="1" source="BXOo2Kb1O86AmZgzZTfz-174" target="BXOo2Kb1O86AmZgzZTfz-179">
          <mxGeometry relative="1" as="geometry" />
        </mxCell>
        <mxCell id="BXOo2Kb1O86AmZgzZTfz-183" value="מסך ניצחון" style="rounded=0;whiteSpace=wrap;html=1;fillColor=#fff2cc;strokeColor=#d6b656;" vertex="1" parent="1">
          <mxGeometry x="-220" y="308" width="191" height="60" as="geometry" />
        </mxCell>
        <mxCell id="BXOo2Kb1O86AmZgzZTfz-184" value="מסך הפסד" style="rounded=0;whiteSpace=wrap;html=1;fillColor=#fff2cc;strokeColor=#d6b656;" vertex="1" parent="1">
          <mxGeometry x="12" y="308" width="191" height="60" as="geometry" />
        </mxCell>
        <mxCell id="BXOo2Kb1O86AmZgzZTfz-185" style="edgeStyle=none;curved=1;rounded=0;orthogonalLoop=1;jettySize=auto;html=1;exitX=0.75;exitY=1;exitDx=0;exitDy=0;entryX=0.445;entryY=-0.024;entryDx=0;entryDy=0;entryPerimeter=0;fontSize=12;startSize=8;endSize=8;" edge="1" parent="1" source="BXOo2Kb1O86AmZgzZTfz-179" target="BXOo2Kb1O86AmZgzZTfz-184">
          <mxGeometry relative="1" as="geometry" />
        </mxCell>
        <mxCell id="BXOo2Kb1O86AmZgzZTfz-186" style="edgeStyle=none;curved=1;rounded=0;orthogonalLoop=1;jettySize=auto;html=1;exitX=0.25;exitY=1;exitDx=0;exitDy=0;entryX=0.552;entryY=-0.009;entryDx=0;entryDy=0;entryPerimeter=0;fontSize=12;startSize=8;endSize=8;" edge="1" parent="1" source="BXOo2Kb1O86AmZgzZTfz-179" target="BXOo2Kb1O86AmZgzZTfz-183">
          <mxGeometry relative="1" as="geometry" />
        </mxCell>
        <mxCell id="BXOo2Kb1O86AmZgzZTfz-187" value="" style="edgeStyle=segmentEdgeStyle;endArrow=classic;html=1;curved=0;rounded=0;endSize=8;startSize=8;fontSize=12;entryX=0.909;entryY=0.985;entryDx=0;entryDy=0;entryPerimeter=0;strokeWidth=2;" edge="1" parent="1" target="BXOo2Kb1O86AmZgzZTfz-157">
          <mxGeometry width="50" height="50" relative="1" as="geometry">
            <mxPoint x="-125" y="369" as="sourcePoint" />
            <mxPoint x="239" y="107" as="targetPoint" />
            <Array as="points">
              <mxPoint x="-125" y="393" />
              <mxPoint x="238" y="393" />
            </Array>
          </mxGeometry>
        </mxCell>
        <mxCell id="BXOo2Kb1O86AmZgzZTfz-188" value="" style="endArrow=none;html=1;rounded=0;fontSize=12;startSize=8;endSize=8;curved=1;strokeWidth=2;" edge="1" parent="1">
          <mxGeometry width="50" height="50" relative="1" as="geometry">
            <mxPoint x="112" y="368" as="sourcePoint" />
            <mxPoint x="112" y="393" as="targetPoint" />
          </mxGeometry>
        </mxCell>
        <mxCell id="BXOo2Kb1O86AmZgzZTfz-189" value="" style="whiteSpace=wrap;html=1;aspect=fixed;fillColor=#fff2cc;strokeColor=#d6b656;" vertex="1" parent="1">
          <mxGeometry x="-387" y="6" width="25" height="25" as="geometry" />
        </mxCell>
        <mxCell id="BXOo2Kb1O86AmZgzZTfz-190" value="" style="whiteSpace=wrap;html=1;aspect=fixed;fillColor=#f8cecc;strokeColor=#b85450;" vertex="1" parent="1">
          <mxGeometry x="-387" y="94" width="25" height="25" as="geometry" />
        </mxCell>
        <mxCell id="BXOo2Kb1O86AmZgzZTfz-191" value="" style="whiteSpace=wrap;html=1;aspect=fixed;fillColor=#d5e8d4;strokeColor=#82b366;" vertex="1" parent="1">
          <mxGeometry x="-387" y="50" width="25" height="25" as="geometry" />
        </mxCell>
        <mxCell id="BXOo2Kb1O86AmZgzZTfz-192" value="מסך -" style="text;html=1;align=center;verticalAlign=middle;whiteSpace=wrap;rounded=0;fontSize=16;" vertex="1" parent="1">
          <mxGeometry x="-441" y="2.5" width="60" height="30" as="geometry" />
        </mxCell>
        <mxCell id="BXOo2Kb1O86AmZgzZTfz-193" value="כפתור שמוביל למסך -" style="text;html=1;align=center;verticalAlign=middle;whiteSpace=wrap;rounded=0;fontSize=16;" vertex="1" parent="1">
          <mxGeometry x="-537" y="46.5" width="153" height="30" as="geometry" />
        </mxCell>
        <mxCell id="BXOo2Kb1O86AmZgzZTfz-194" value="יציאה מהמערכת -" style="text;html=1;align=center;verticalAlign=middle;whiteSpace=wrap;rounded=0;fontSize=16;" vertex="1" parent="1">
          <mxGeometry x="-507" y="89.5" width="119" height="30" as="geometry" />
        </mxCell>
      </root>
    </mxGraphModel>
  </diagram>
</mxfile>
